# xmcd
#
# Track frame offsets: 
#        150
#        35474
#        69252
#        102123
#        137582
#        167504
#        185346
#        219924
#        255820
#        274904
#
# Disc length: 3979 seconds
#
# Revision: 1
# Processed by: cddbd v1.5.2PL0 Copyright (c) Steve Scherf et al.
# Submitted via: ExactAudioCopy v0.99pb5
#
DISCID=7c0f890a
DTITLE=Pierre de Bethmann - Cubique
DYEAR=2009
DGENRE=Jazz
TTITLE0=Decale
TTITLE1=Toutes ces choses
TTITLE2=Ailleurs parfois
TTITLE3=Cubique
TTITLE4=Demens Sapiens I
TTITLE5=Demens Sapiens II
TTITLE6=Bat'carre
TTITLE7=Vouloir, tout est la
TTITLE8=Pardon
TTITLE9=Si
EXTD=YEAR: 2009
EXTT0=
EXTT1=
EXTT2=
EXTT3=
EXTT4=
EXTT5=
EXTT6=
EXTT7=
EXTT8=
EXTT9=
PLAYORDER=
